<svg width="23" height="23" viewBox="0 0 23 23" fill="none" xmlns="http://www.w3.org/2000/svg">
<g clip-path="url(#clip0_1172_12766)">
<path d="M11.4999 22.1787C17.3975 22.1787 22.1784 17.3977 22.1784 11.5001C22.1784 5.60249 17.3975 0.821533 11.4999 0.821533C5.60225 0.821533 0.821289 5.60249 0.821289 11.5001C0.821289 17.3977 5.60225 22.1787 11.4999 22.1787Z" stroke="#F9A21B" stroke-width="1.5" stroke-linecap="round" stroke-linejoin="round"/>
<path d="M9.03564 9.03582C9.03564 8.54843 9.18017 8.07199 9.45095 7.66674C9.72173 7.26149 10.1066 6.94563 10.5569 6.75912C11.0072 6.5726 11.5027 6.5238 11.9807 6.61888C12.4587 6.71397 12.8978 6.94867 13.2424 7.29331C13.5871 7.63794 13.8218 8.07704 13.9169 8.55506C14.012 9.03309 13.9631 9.52857 13.7766 9.97886C13.5901 10.4292 13.2743 10.814 12.869 11.0848C12.4638 11.3556 11.9873 11.5001 11.4999 11.5001V13.143" stroke="#F9A21B" stroke-width="1.5" stroke-linecap="round" stroke-linejoin="round"/>
<path d="M11.5002 15.6072C11.2565 15.6072 11.0183 15.6794 10.8157 15.8148C10.613 15.9502 10.4551 16.1427 10.3619 16.3678C10.2686 16.5929 10.2442 16.8407 10.2917 17.0797C10.3393 17.3187 10.4566 17.5383 10.629 17.7106C10.8013 17.8829 11.0208 18.0002 11.2598 18.0478C11.4988 18.0953 11.7466 18.0709 11.9717 17.9777C12.1969 17.8844 12.3893 17.7265 12.5247 17.5239C12.6601 17.3212 12.7324 17.083 12.7324 16.8393C12.7281 16.5139 12.5969 16.2029 12.3668 15.9728C12.1366 15.7426 11.8257 15.6114 11.5002 15.6072Z" fill="#F9A21B"/>
</g>
<defs>
<clipPath id="clip0_1172_12766">
<rect width="23" height="23" fill="white"/>
</clipPath>
</defs>
</svg>
