<svg width="24" height="24" viewBox="0 0 24 24" fill="none" xmlns="http://www.w3.org/2000/svg">
<path d="M9.35194 5.98568L9.46094 6.08174L19.1972 15.9019C19.3248 16.0305 19.4206 16.1876 19.4767 16.3606C19.5328 16.5335 19.5478 16.7173 19.5203 16.8971C19.4928 17.077 19.4236 17.2477 19.3185 17.3955C19.2133 17.5433 19.0751 17.6641 18.915 17.7479L18.7819 17.8058L6.86682 22.235C4.62722 23.0683 2.44614 20.9445 3.12651 18.6888L3.18387 18.5199L7.57357 6.50071C7.63161 6.34149 7.72363 6.1971 7.84312 6.07774C7.96261 5.95837 8.10666 5.86697 8.26505 5.80999C8.42345 5.75302 8.59232 5.73186 8.75973 5.74802C8.92713 5.76418 9.08896 5.81726 9.23377 5.90351L9.35194 5.98453V5.98568ZM19.7135 11.0132C20.7587 11.0688 22.1918 11.291 23.4378 12.0456C23.6904 12.1967 23.8759 12.4397 23.9562 12.7246C24.0366 13.0095 24.0055 13.3147 23.8695 13.5772C23.7335 13.8397 23.5029 14.0397 23.2251 14.1358C22.9474 14.232 22.6437 14.2171 22.3765 14.0941L22.2572 14.0305C21.4747 13.556 20.4742 13.3708 19.5931 13.3245C19.23 13.3033 18.866 13.3048 18.5031 13.3291L18.1405 13.365C17.8412 13.404 17.5388 13.3224 17.2987 13.138C17.0585 12.9536 16.9001 12.6812 16.8577 12.3798C16.8153 12.0784 16.8923 11.7723 17.0721 11.5278C17.2519 11.2832 17.5199 11.12 17.8181 11.0734C18.4465 10.9915 19.0812 10.971 19.7135 11.0121V11.0132ZM22.0369 7.78885C22.3292 7.78946 22.6103 7.90262 22.8227 8.10522C23.0351 8.30781 23.1629 8.58456 23.1799 8.87895C23.1968 9.17334 23.1018 9.46317 22.9141 9.68926C22.7264 9.91534 22.4603 10.0606 22.17 10.0955L22.0369 10.1036H21.2246C20.9322 10.1029 20.6511 9.98978 20.4387 9.78719C20.2263 9.58459 20.0986 9.30785 20.0816 9.01345C20.0646 8.71906 20.1596 8.42923 20.3473 8.20315C20.535 7.97706 20.8012 7.83177 21.0915 7.79695L21.2246 7.78885H22.0369ZM18.3861 6.9C18.5836 7.09928 18.7023 7.36443 18.7198 7.6457C18.7373 7.92697 18.6525 8.20503 18.4813 8.42771L18.3861 8.5365L17.1687 9.76445C16.9623 9.97202 16.6852 10.0925 16.3938 10.1015C16.1025 10.1105 15.8186 10.0073 15.6 9.81278C15.3814 9.6183 15.2443 9.34717 15.2167 9.05445C15.189 8.76172 15.2729 8.46936 15.4512 8.23674L15.5464 8.12795L16.7626 6.90115C16.8691 6.79355 16.9957 6.70818 17.135 6.64994C17.2742 6.59169 17.4235 6.56172 17.5743 6.56172C17.7251 6.56172 17.8744 6.59169 18.0137 6.64994C18.153 6.70818 18.2795 6.79239 18.3861 6.9ZM15.4179 0.805353C15.9319 2.36316 15.6565 4.0691 15.3353 5.26118C15.1422 6.00437 14.8771 6.72658 14.5436 7.41733C14.4078 7.69205 14.1693 7.90108 13.8806 7.99842C13.592 8.09577 13.2768 8.07346 13.0045 7.93641C12.7321 7.79936 12.5249 7.55878 12.4284 7.26762C12.3319 6.97645 12.354 6.65854 12.4899 6.38381C12.756 5.82892 12.9673 5.249 13.1209 4.65241C13.3814 3.68949 13.5122 2.64439 13.3114 1.78795L13.2414 1.53796C13.1914 1.39322 13.1704 1.2399 13.1796 1.08691C13.1888 0.933915 13.2281 0.784291 13.2951 0.646724C13.3621 0.509157 13.4555 0.386387 13.57 0.28554C13.6844 0.184694 13.8175 0.10778 13.9617 0.0592635C14.1058 0.0107472 14.2581 -0.00840503 14.4096 0.00291857C14.5611 0.0142422 14.7089 0.0558162 14.8444 0.125227C14.9799 0.194638 15.1003 0.290502 15.1988 0.407256C15.2972 0.52401 15.3717 0.659328 15.4179 0.805353ZM21.6307 3.62699C21.8458 3.84403 21.9666 4.13835 21.9666 4.44524C21.9666 4.75213 21.8458 5.04646 21.6307 5.26349L20.8195 6.08174C20.7137 6.19228 20.5871 6.28045 20.4471 6.34111C20.3072 6.40177 20.1566 6.43369 20.0043 6.43503C19.8519 6.43636 19.7008 6.40708 19.5598 6.34889C19.4188 6.29069 19.2907 6.20476 19.183 6.09609C19.0753 5.98742 18.9901 5.8582 18.9324 5.71597C18.8747 5.57373 18.8457 5.42133 18.847 5.26766C18.8483 5.11399 18.88 4.96212 18.9401 4.82091C19.0002 4.67971 19.0876 4.552 19.1972 4.44524L20.0084 3.62699C20.2235 3.41002 20.5153 3.28813 20.8195 3.28813C21.1238 3.28813 21.4156 3.41002 21.6307 3.62699Z" fill="#F9A21B"/>
</svg>
