<svg width="25" height="22" viewBox="0 0 25 22" fill="none" xmlns="http://www.w3.org/2000/svg">
<mask id="mask0_1172_12791" style="mask-type:luminance" maskUnits="userSpaceOnUse" x="0" y="0" width="25" height="22">
<path d="M12.1111 20.4958L1 7.76937L4.16389 1H20.0583L23.2222 7.76937L12.1111 20.4958Z" fill="white" stroke="white" stroke-width="2" stroke-linecap="round" stroke-linejoin="round"/>
</mask>
<g mask="url(#mask0_1172_12791)">
<path d="M-1.22217 -2.24951H25.4445V23.7449H-1.22217V-2.24951Z" fill="#F9A21B"/>
</g>
<path d="M12.3781 1.65585L13.0126 2.81672L14.3936 2.85423C14.4659 2.85601 14.5363 2.87783 14.5962 2.91697C14.6561 2.95611 14.7027 3.01083 14.7302 3.07429C14.7577 3.13775 14.765 3.20713 14.751 3.27376C14.7371 3.34039 14.7025 3.40131 14.6517 3.4489L13.6833 4.35067L14.0993 5.58947C14.121 5.65484 14.1218 5.72445 14.1018 5.78959C14.0817 5.85473 14.0417 5.91251 13.9866 5.95571C13.9316 5.99892 13.8639 6.02562 13.7922 6.03249C13.7205 6.03936 13.6478 6.02609 13.5833 5.99434L12.3497 5.39115L11.2258 6.12106C11.167 6.15981 11.097 6.18111 11.0247 6.18229C10.9524 6.18346 10.8809 6.16446 10.8193 6.12766C10.7577 6.09086 10.7086 6.03791 10.6783 5.97544C10.648 5.91297 10.6377 5.84377 10.6488 5.7765L10.8555 4.50183L9.74545 3.71228C9.68717 3.67097 9.64285 3.61454 9.61807 3.55007C9.59328 3.48561 9.58915 3.416 9.60617 3.35002C9.6232 3.28404 9.66063 3.22463 9.71376 3.17927C9.76688 3.13391 9.83333 3.10463 9.90472 3.09512L11.2663 2.91008L11.7028 1.6922C11.7257 1.62783 11.7683 1.5716 11.8253 1.53055C11.8824 1.48951 11.9513 1.46548 12.0234 1.46149C12.0956 1.45749 12.1678 1.47371 12.2309 1.5081C12.294 1.54249 12.3453 1.59352 12.3784 1.6548L12.3781 1.65585Z" fill="white"/>
<path d="M8.37809 7.50473L9.01261 8.6656L10.3936 8.70311C10.4659 8.70489 10.5363 8.72671 10.5962 8.76585C10.6561 8.80499 10.7027 8.85971 10.7302 8.92317C10.7577 8.98663 10.765 9.05601 10.751 9.12263C10.7371 9.18926 10.7025 9.25018 10.6517 9.29778L9.68328 10.1996L10.0993 11.4383C10.121 11.5037 10.1218 11.5733 10.1018 11.6385C10.0817 11.7036 10.0417 11.7614 9.98663 11.8046C9.93157 11.8478 9.86394 11.8745 9.7922 11.8814C9.72046 11.8882 9.6478 11.875 9.58329 11.8432L8.34967 11.24L7.22579 11.9699C7.16696 12.0087 7.097 12.03 7.02468 12.0312C6.95236 12.0323 6.88092 12.0133 6.81929 11.9765C6.75767 11.9397 6.70862 11.8868 6.67828 11.8243C6.64795 11.7618 6.63769 11.6926 6.64879 11.6254L6.85551 10.3507L5.74545 9.56116C5.68717 9.51985 5.64285 9.46341 5.61807 9.39895C5.59328 9.33449 5.58915 9.26488 5.60617 9.1989C5.6232 9.13291 5.66063 9.0735 5.71376 9.02814C5.76688 8.98278 5.83333 8.95351 5.90472 8.944L7.26628 8.75896L7.70279 7.54108C7.72566 7.47671 7.76829 7.42047 7.82534 7.37943C7.88238 7.33839 7.9513 7.31436 8.02345 7.31037C8.0956 7.30637 8.16777 7.32259 8.23091 7.35698C8.29404 7.39137 8.34534 7.4424 8.37836 7.50368L8.37809 7.50473Z" fill="white"/>
<path d="M17.3781 7.50473L18.0126 8.6656L19.3936 8.70311C19.4659 8.70489 19.5363 8.72671 19.5962 8.76585C19.6561 8.80499 19.7027 8.85971 19.7302 8.92317C19.7577 8.98663 19.765 9.05601 19.751 9.12263C19.7371 9.18926 19.7025 9.25018 19.6517 9.29778L18.6833 10.1996L19.0993 11.4383C19.121 11.5037 19.1218 11.5733 19.1018 11.6385C19.0817 11.7036 19.0417 11.7614 18.9866 11.8046C18.9316 11.8478 18.8639 11.8745 18.7922 11.8814C18.7205 11.8882 18.6478 11.875 18.5833 11.8432L17.3497 11.24L16.2258 11.9699C16.167 12.0087 16.097 12.03 16.0247 12.0312C15.9524 12.0323 15.8809 12.0133 15.8193 11.9765C15.7577 11.9397 15.7086 11.8868 15.6783 11.8243C15.648 11.7618 15.6377 11.6926 15.6488 11.6254L15.8555 10.3507L14.7455 9.56116C14.6872 9.51985 14.6429 9.46341 14.6181 9.39895C14.5933 9.33449 14.5891 9.26488 14.6062 9.1989C14.6232 9.13291 14.6606 9.0735 14.7138 9.02814C14.7669 8.98278 14.8333 8.95351 14.9047 8.944L16.2663 8.75896L16.7028 7.54108C16.7257 7.47671 16.7683 7.42047 16.8253 7.37943C16.8824 7.33839 16.9513 7.31436 17.0234 7.31037C17.0956 7.30637 17.1678 7.32259 17.2309 7.35698C17.294 7.39137 17.3453 7.4424 17.3784 7.50368L17.3781 7.50473Z" fill="white"/>
</svg>
