<svg width="26" height="30" viewBox="0 0 26 30" fill="none" xmlns="http://www.w3.org/2000/svg">
<path d="M23.6234 10.1416C23.7915 8.10205 24.3944 6.2297 25.4558 4.51281L21.3833 0.512695C20.097 1.60033 18.631 2.20306 16.9715 2.30917C15.45 2.44427 14.0082 2.16049 12.6511 1.45597C11.2565 2.13705 9.8202 2.42268 8.32341 2.30917C6.79994 2.18505 5.34303 1.61909 4.12453 0.67803L0.0417649 4.67691C1.04628 6.41786 1.60569 8.23963 1.71515 10.1416C1.76716 11.017 1.51316 12.2237 0.941655 13.7814C0.682328 14.5171 0.455714 15.2643 0.262504 16.0209C0.11978 16.6433 0.0308792 17.148 0.000640959 17.5274C-0.019921 19.1875 0.454214 20.6866 1.42668 22.0198C2.18687 22.9927 3.44054 24.0673 5.18106 25.2426C7.08485 26.1945 8.55867 26.812 9.591 27.0755L10.4473 27.4672C10.7165 27.5931 11.0049 27.7171 11.3055 27.8515C11.9556 28.234 12.411 28.648 12.6511 29.0755C12.9462 28.6122 13.4125 28.2094 14.0318 27.8515C14.4031 27.6952 14.7712 27.5313 15.1361 27.3599L15.7826 27.0761C16.0033 26.9693 16.2918 26.846 16.6426 26.7096C17.0766 26.5409 17.5129 26.3782 17.9513 26.2216C18.957 25.8725 19.6894 25.5412 20.1544 25.2426C21.8429 24.068 23.0773 23.0099 23.8628 22.0654C24.8698 20.728 25.3596 19.2214 25.3373 17.5286C25.2774 16.7698 24.9502 15.5569 24.3563 13.9042C23.7915 12.2934 23.5417 11.0435 23.6234 10.1416Z" fill="#F9A21B"/>
<path d="M15.875 11.7337H15.3125V10.5679C15.3125 8.95905 14.0525 7.65332 12.5 7.65332C10.9475 7.65332 9.6875 8.95905 9.6875 10.5679V11.7337H9.125C8.50625 11.7337 8 12.2583 8 12.8996V18.7287C8 19.3699 8.50625 19.8945 9.125 19.8945H15.875C16.4937 19.8945 17 19.3699 17 18.7287V12.8996C17 12.2583 16.4937 11.7337 15.875 11.7337ZM12.5 16.98C11.8812 16.98 11.375 16.4553 11.375 15.8141C11.375 15.1729 11.8812 14.6483 12.5 14.6483C13.1188 14.6483 13.625 15.1729 13.625 15.8141C13.625 16.4553 13.1188 16.98 12.5 16.98ZM10.8125 11.7337V10.5679C10.8125 9.60026 11.5663 8.81915 12.5 8.81915C13.4338 8.81915 14.1875 9.60026 14.1875 10.5679V11.7337H10.8125Z" fill="white"/>
</svg>
